<svg version="1.2" xmlns="http://www.w3.org/2000/svg" viewBox="0 0 18 19" width="18" height="19"><style>.s0{fill:#9ba3af}</style><path class="s0" d="m1.3 18.5c-0.4 0-0.8-0.2-1.1-0.6c-0.2-0.4-0.3-0.8-0.1-1.2c0.2-0.5 2.4-4.9 2.8-5.8l0.1-0.1l9.6-9.7c0.8-0.8 2.3-0.8 3.2 0.1l1.5 1.5c0.9 0.9 0.9 2.2 0 3l-9.6 9.8h-0.2c0 0-5.2 2.6-5.7 2.9q-0.2 0.1-0.5 0.1zm2.7-6.6c-0.5 1.1-1.2 2.5-1.8 3.6c-0.3 0.6 0.2 1.1 0.8 0.8c1.5-0.7 3.2-1.6 3.6-1.8l9.7-9.8c0.3-0.3 0.3-0.6 0-0.9l-1.5-1.6c-0.3-0.3-0.8-0.3-1.1 0zm10.3-3.9q-0.3 0-0.5-0.2l-3.1-3.1c-0.3-0.2-0.3-0.7 0-1c0.3-0.3 0.8-0.3 1.1 0l3 3c0.3 0.3 0.3 0.8 0 1.1q-0.2 0.2-0.5 0.2z" /></svg>