<svg version="1.2" xmlns="http://www.w3.org/2000/svg" viewBox="0 0 12 16" width="12" height="16"><style>.s0{fill:#9ba3af}</style><path class="s0" d="m6 11.3c-0.3 0-0.5-0.1-0.6-0.4l-1-2.3l-2.5 0.7c-0.3 0.1-0.6 0-0.7-0.2c-0.2-0.2-0.2-0.5-0.1-0.8l1.3-2.1l-2.1-1.4c-0.3-0.2-0.4-0.4-0.3-0.7c0-0.3 0.3-0.5 0.5-0.5l2.6-0.4l-0.2-2.5c0-0.2 0.2-0.5 0.4-0.6c0.3-0.2 0.5-0.1 0.8 0.1l1.9 1.7l1.9-1.7c0.3-0.2 0.5-0.3 0.8-0.1c0.2 0.1 0.4 0.4 0.4 0.6l-0.2 2.5l2.6 0.4c0.2 0 0.5 0.2 0.5 0.5c0.1 0.3 0 0.5-0.3 0.7l-2.1 1.4l1.3 2.1c0.1 0.3 0.1 0.6-0.1 0.8c-0.1 0.2-0.4 0.3-0.7 0.2l-2.5-0.7l-1 2.3c-0.1 0.3-0.3 0.4-0.6 0.4zm-1.2-4.2c0.3 0 0.5 0.2 0.6 0.4l0.6 1.4l0.6-1.4c0.1-0.3 0.5-0.5 0.8-0.4l1.4 0.4l-0.7-1.2c-0.2-0.3-0.1-0.7 0.2-0.9l1.2-0.8l-1.4-0.2c-0.4 0-0.6-0.3-0.6-0.7l0.1-1.4l-1.2 1c-0.2 0.2-0.6 0.2-0.8 0l-1.2-1l0.1 1.4c0 0.4-0.2 0.7-0.6 0.7l-1.4 0.2l1.2 0.8c0.3 0.2 0.4 0.6 0.2 0.9l-0.7 1.2l1.4-0.4q0.1 0 0.2 0zm3.1 8.9q-0.2 0-0.4-0.1l-1.5-1.1l-1.4 1.1q-0.2 0.1-0.4 0.1c-0.6 0-1.5-0.5-1.5-1.3v-6.5c0-0.4 0.2-0.7 0.6-0.7c0.4 0 0.7 0.3 0.7 0.7v6.3q0 0.1 0.1 0.1l1.5-1.1c0.2-0.2 0.5-0.2 0.8-0.1l1.6 1.2q0 0 0 0v-6.4c0-0.4 0.3-0.7 0.7-0.7c0.3 0 0.6 0.3 0.6 0.7v6.5c0 0.7-0.8 1.3-1.4 1.3z" /></svg>