<svg version="1.2" xmlns="http://www.w3.org/2000/svg" viewBox="0 0 19 19" width="19" height="19"><style>.s0{fill:#ffffff}</style><path class="s0" d="m5.2 0.5h8.6c2.6 0 4.7 2.1 4.7 4.7v8.6c0 2.6-2.1 4.7-4.7 4.7h-8.6c-2.6 0-4.7-2.1-4.7-4.7v-2.8c0.4 0 6.7 0 6.8 0c0.4 0 0.7 0.4 0.7 0.8v1.4c0 0.2 0.4 0.3 0.6 0l3.2-3.2c0.2-0.2 0.2-0.7-0.1-1l-3-3.2c-0.3-0.3-0.7-0.2-0.7 0v1.4c0 0.5-0.3 0.8-0.7 0.8c-0.1 0-6.4-0.1-6.8-0.1v-2.7c0-2.6 2.1-4.7 4.7-4.7zm8.7 1.4c1.7 0 3.2 1.5 3.2 3.2v8.8c0 1.8-1.5 3.2-3.2 3.2h-8.8c-1.8 0-3.2-1.4-3.2-3.2v-1.5h4.7v0.7c0 1 0.6 1.7 1.6 1.7c0.6 0 1.2-0.3 1.5-0.7l3-3c0.4-0.5 0.6-1 0.6-1.6c0-0.5-0.2-1.1-0.6-1.5l-2.9-3.1c-0.4-0.4-1-0.6-1.6-0.6c-1 0-1.7 0.7-1.7 1.7v0.5h-4.6v-1.4c0-1.7 1.4-3.2 3.2-3.2z" /></svg>