<svg version="1.2" xmlns="http://www.w3.org/2000/svg" viewBox="0 0 19 19" width="19" height="19"><style>.s0{fill:#95a5a6}</style><path class="s0" d="m6.2 18.1q-0.3 0-0.5-0.2c-0.3-0.2-0.3-0.6-0.1-0.9l1.5-2.6c-3.8-0.8-6.6-3.5-6.6-6.6c0-3.8 4-6.9 9-6.9c5 0 9 3.1 9 6.9c0 2.8-2.2 5.3-5.6 6.4l-6.3 3.8q-0.2 0.1-0.4 0.1zm3.3-15.7c-4.1 0-7.5 2.4-7.5 5.4c0 2.6 2.8 4.9 6.4 5.3c0.3 0.1 0.5 0.2 0.6 0.4c0.1 0.3 0.1 0.5 0 0.8l-0.5 0.8l3.7-2.2q0-0.1 0.1-0.1c2.9-0.9 4.7-2.8 4.7-5c0-3-3.4-5.4-7.5-5.4zm4.5 5.2h-7.5c-0.5 0-0.8-0.3-0.8-0.7c0-0.4 0.3-0.8 0.8-0.8h7.5c0.4 0 0.7 0.4 0.7 0.8c0 0.4-0.3 0.7-0.7 0.7zm-2.3 2.3h-5.2c-0.5 0-0.8-0.3-0.8-0.8c0-0.4 0.3-0.7 0.8-0.7h5.2c0.4 0 0.8 0.3 0.8 0.7c0 0.5-0.4 0.8-0.8 0.8z" /></svg>