<svg version="1.2" xmlns="http://www.w3.org/2000/svg" viewBox="0 0 19 19" width="19" height="19"><style>.s0{fill:#95a5a6}</style><path class="s0" d="m6.8 18.5q-0.8 0-1.2-0.4c-0.2-0.2-0.3-0.5-0.2-0.7c0-0.1 0.5-3.4-3.5-7.4c-1.8-1.8-2.1-5.6 0.2-7.9c1-1 2.4-1.6 4-1.6c1.5 0 3 0.6 4 1.5c3.3 3.3 7 3.4 7.4 3.4c0.2 0 0.5 0.1 0.6 0.2c1.5 1.5-1.5 6.9-3.6 9c-2 2-5.7 3.9-7.7 3.9zm-0.7-16.5c-1.2 0-2.2 0.4-2.9 1.1c-1.7 1.7-1.5 4.6-0.2 5.9c3.5 3.5 3.9 6.7 3.9 8c1.4 0 4.7-1.6 6.5-3.4c2.1-2.1 3.7-5.6 3.7-6.8c-1.4-0.1-5-0.6-8-3.7c-0.7-0.7-1.8-1.1-3-1.1zm9.9 10.6q0.3 0.5 0.3 1.1c0 0.7-0.3 1.4-0.8 1.8c-0.8 0.8-2 1-3 0.5z" /></svg>