<svg version="1.2" xmlns="http://www.w3.org/2000/svg" viewBox="0 0 19 19" width="19" height="19"><style>.s0{fill:#95a5a6}</style><path class="s0" d="m18.3 18.5h-17.7l-0.1-0.7c0-0.1-0.3-4 1.6-6.1q1.2-1.4 3.2-1.4h0.3l0.2 0.3c1 1.2 2 2 3.7 2c1.6 0 2.5-0.8 3.5-2l0.2-0.3h0.4q2.3 0 3.6 1.5c1.8 2.2 1.2 5.9 1.2 6.1zm-16.4-1.4h15.1c0.1-1.1 0.1-3.2-1-4.4q-0.7-0.9-2.1-1c-1 1.2-2.3 2.3-4.5 2.3c-2.2 0-3.5-1.1-4.5-2.3q-1.1 0.1-1.8 0.9c-1.1 1.2-1.2 3.3-1.2 4.5zm7.7-6.1c-2.6 0-4.4-4.1-4.4-6.3c0-2.3 2-4.2 4.4-4.2c2.5 0 4.5 1.9 4.5 4.2c0 2.2-1.8 6.3-4.5 6.3zm0-9.2c-1.7 0-3.1 1.3-3.1 2.8c0 1.8 1.6 5.1 3.1 5.1c1.5 0 3.1-3.3 3.1-5.1c0-1.5-1.4-2.8-3.1-2.8z" /></svg>