<svg version="1.2" xmlns="http://www.w3.org/2000/svg" viewBox="0 0 18 18" width="18" height="18"><style>.s0{fill:#95a5a6}</style><path class="s0" d="m0 6.4c0-3.5 2.8-6.4 6.3-6.4c3.5 0 6.3 2.8 6.4 6.3c0 3.5-2.8 6.4-6.3 6.4c-3.5 0.1-6.4-2.8-6.4-6.3zm6.3-4.9c2.7 0 4.9 2.1 4.9 4.9c0 2.7-2.1 4.9-4.8 5c-2.8 0-5-2.2-5-4.9c0-2.8 2.2-5 4.9-5zm6.7 9.9q0.2 0.1 0.4 0.3l4.2 4.2c0.5 0.5 0.5 1.3 0.1 1.7c-0.5 0.5-1.3 0.5-1.8 0l-4.2-4.2q-0.2-0.1-0.3-0.3q1-0.7 1.6-1.7zm-10.4-5.7c0-1.7 1.3-3 2.9-3c0.2 0 0.4 0.1 0.4 0.4c0 0.2-0.2 0.3-0.4 0.3c-1.2 0-2.2 1-2.2 2.3c0 0.2-0.1 0.4-0.3 0.4c-0.2 0-0.4-0.2-0.4-0.4z" /></svg>