<svg version="1.2" xmlns="http://www.w3.org/2000/svg" viewBox="0 0 24 24" width="24" height="24"><style>.s0{fill:#95a5a6}</style><path class="s0" d="m21 24h-18c-1.7 0-3-1.3-3-3v-18c0-1.7 1.3-3 3-3h18c1.7 0 3 1.3 3 3v18c0 1.7-1.3 3-3 3zm-18-22c-0.6 0-1 0.4-1 1v18c0 0.6 0.4 1 1 1h18c0.6 0 1-0.4 1-1v-18c0-0.6-0.4-1-1-1zm10 21.6h-2v-22h2zm10-10.6h-22v-2h22zm-16-4h-1v-5h1zm-3-2v-1h5v1zm11 0v-1h5v1zm0 11v-1h5v1zm3-2h-1v-1h1zm0 4h-1v-1h1zm-9.4-5.4l0.8 0.8l-5 5l-0.8-0.8zm-5 0.8l0.8-0.8l5 5l-0.8 0.8z" /></svg>