<svg version="1.2" xmlns="http://www.w3.org/2000/svg" viewBox="0 0 24 25" width="24" height="25"><style>.s0{fill:#95a5a6}</style><path class="s0" d="m12 24.5c-6.6 0-12-5.4-12-12c0-6.6 5.4-12 12-12c6.6 0 12 5.4 12 12c0 6.6-5.4 12-12 12zm0-22c-5.5 0-10 4.5-10 10c0 5.5 4.5 10 10 10c5.6 0 10.1-4.5 10.1-10c0-5.5-4.5-10-10.1-10zm2 10c0 1.1-0.9 2-2 2c-1.1 0-2-0.9-2-2c0-1.1 0.9-2 2-2c1.1 0 2 0.9 2 2zm4 0c0 0.6-1.5 1-3.5 1c-1.9 0-2.5-0.4-2.5-1c0-0.6 0.6-1 2.5-1c2 0 3.5 0.4 3.5 1zm-5-3.5c0 2.5-0.4 3.5-1 3.5c-0.5 0-1-1-1-3.5c0-2.5 0.5-4.5 1-4.5c0.6 0 1 2 1 4.5z" /></svg>