<svg version="1.2" xmlns="http://www.w3.org/2000/svg" viewBox="0 0 24 23" width="24" height="23"><style>.s0{fill:#2ecc71}</style><path class="s0" d="m12 22.9c-6.3 0-11.4-5.1-11.4-11.4c0-6.3 5.1-11.4 11.4-11.4c6.3 0 11.4 5.1 11.4 11.4c0 6.3-5.1 11.4-11.4 11.4zm0-21c-5.3 0-9.7 4.3-9.7 9.6c0 5.3 4.4 9.6 9.7 9.6c5.3 0 9.7-4.3 9.7-9.6c0-5.3-4.4-9.6-9.7-9.6zm0 15c-3 0-5.4-2.4-5.4-5.4c0-3.1 2.4-5.5 5.4-5.5c3 0 5.5 2.4 5.5 5.5c0 3-2.5 5.4-5.5 5.4zm0-10c-2.5 0-4.6 2-4.6 4.6c0 2.6 2.1 4.6 4.6 4.6c2.6 0 4.7-2 4.7-4.6c0-2.6-2.1-4.6-4.7-4.6zm0 7c-1.4 0-2.4-1.1-2.4-2.4c0-1.3 1-2.4 2.4-2.4c1.3 0 2.4 1.1 2.4 2.4c0 1.3-1.1 2.4-2.4 2.4zm4-5.9q-0.2 0-0.3-0.2c-0.2-0.2-0.2-0.5 0-0.7l3-2.9c0.2-0.2 0.5-0.2 0.7 0c0.2 0.2 0.2 0.5 0 0.7l-3 2.9q-0.2 0.2-0.4 0.2zm-11 11q-0.2 0-0.3-0.2c-0.2-0.2-0.2-0.5 0-0.7l3-3c0.2-0.2 0.5-0.1 0.7 0c0.2 0.2 0.2 0.6 0 0.8l-3 2.9q-0.2 0.2-0.4 0.2z" /></svg>