<svg version="1.2" xmlns="http://www.w3.org/2000/svg" viewBox="0 0 25 25" width="25" height="25"><style>.s0{fill:#95a5a6}</style><path class="s0" d="m24.5 3.1v18.8c0 1.4-1.2 2.6-2.6 2.6h-18.8c-1.4 0-2.6-1.2-2.6-2.6v-18.8c0-1.4 1.2-2.6 2.6-2.6h18.8c1.4 0 2.6 1.2 2.6 2.6zm-1.7 18.8c0 0.5-0.4 0.9-0.9 0.9h-18.8c-0.5 0-0.9-0.4-0.9-0.9v-18.8c0-0.5 0.4-0.9 0.9-0.9h18.8c0.5 0 0.9 0.4 0.9 0.9zm-12-4.3c0 1.9-1.6 3.4-3.4 3.4c-1.9 0-3.5-1.5-3.5-3.4c0-1.9 1.6-3.4 3.5-3.4c1.8 0 3.4 1.5 3.4 3.4zm-3.4 1.7c-1 0-1.8-0.8-1.8-1.7c0-1 0.8-1.7 1.8-1.7c0.9 0 1.7 0.7 1.7 1.7c0 0.9-0.8 1.7-1.7 1.7zm8.5 1.7h-1.7c0-5.7-4.6-10.3-10.3-10.3v-1.7c6.6 0 12 5.4 12 12zm4.3 0h-1.7c0-8-6.5-14.6-14.6-14.6v-1.7c9 0 16.3 7.3 16.3 16.3z" /></svg>