<svg version="1.2" xmlns="http://www.w3.org/2000/svg" viewBox="0 0 26 19" width="26" height="19"><style>.s0{fill:#95a5a6}</style><path class="s0" d="m15.8 14.8c0.2 1.3 0.8 2.3 1.8 3.3c-1.5 0-3.7-0.4-5.2-1.2c-1.1 0.4-2.3 0.6-3.6 0.6c-4.9 0-8.8-3.1-8.8-6.9c0-3.8 3.9-7 8.8-7q1.4 0.1 2.7 0.4q-0.3 0.8-0.3 1.8q-1.1-0.3-2.4-0.3c-3.8 0-6.9 2.3-6.9 5.1c0 2.8 3.1 5.1 6.9 5.1q1.6 0 3-0.5l0.8-0.3l0.7 0.4q0.3 0.1 0.8 0.3q-0.1-0.3-0.1-0.6l-0.1-0.9l0.4-0.4c0.9-0.2 1.8-0.5 2.7-0.9q0.1 0.1 0.1 0.1q-0.4 1-1.3 1.9zm10.2-8.8c0 2.8-2.9 5.1-6.5 5.1q-1.4 0-2.6-0.5c-1.2 0.6-2.8 0.9-3.9 0.9c0.7-0.7 1.2-1.5 1.3-2.4c-0.8-0.9-1.3-2-1.3-3.1c0-2.9 2.9-5.1 6.5-5.1c3.6 0 6.5 2.2 6.5 5.1zm-6.5 3.2c-2.6 0-4.6-1.4-4.6-3.2c0-1.8 2-3.3 4.6-3.3c2.6 0 4.6 1.5 4.6 3.3c0 1.8-2 3.2-4.6 3.2z" /></svg>